<svg xmlns="http://www.w3.org/2000/svg" viewBox="0 0 1254 1254"><path fill="#fff" fill-rule="evenodd" d="M190 172h874c63 0 114 51 114 114v682c0 63-51 114-114 114H190c-63 0-114-51-114-114V286c0-63 51-114 114-114m0 68c-25 0-46 21-46 46v682c0 25 21 46 46 46h874c25 0 46-21 46-46V286c0-25-21-46-46-46z"/><rect width="122" height="72" x="170" y="346" fill="#fff" rx="26"/><rect width="122" height="72" x="170" y="578" fill="#fff" rx="26"/><rect width="122" height="72" x="170" y="810" fill="#fff" rx="26"/><rect width="122" height="72" x="962" y="346" fill="#fff" rx="26"/><rect width="122" height="72" x="962" y="578" fill="#fff" rx="26"/><rect width="122" height="72" x="962" y="810" fill="#fff" rx="26"/><path fill="#fff" fill-rule="evenodd" d="M456 400c0-20 16-36 36-36h196c122 0 198 72 198 181s-76 181-198 181H528v120c0 20-16 36-36 36s-36-16-36-36zm72 36v218h160c80 0 126-40 126-109s-46-109-126-109z"/></svg>