<svg xmlns="http://www.w3.org/2000/svg" viewBox="0 0 1254 1254"><path fill="#fff" fill-rule="evenodd" d="M190 172h874c63 0 114 51 114 114v682c0 63-51 114-114 114H190c-63 0-114-51-114-114V286c0-63 51-114 114-114m0 68c-25 0-46 21-46 46v682c0 25 21 46 46 46h874c25 0 46-21 46-46V286c0-25-21-46-46-46z"/><rect width="122" height="72" x="170" y="346" fill="#fff" rx="26"/><rect width="122" height="72" x="170" y="578" fill="#fff" rx="26"/><rect width="122" height="72" x="170" y="810" fill="#fff" rx="26"/><rect width="122" height="72" x="962" y="346" fill="#fff" rx="26"/><rect width="122" height="72" x="962" y="578" fill="#fff" rx="26"/><rect width="122" height="72" x="962" y="810" fill="#fff" rx="26"/><path fill="#fff" d="M370 591c-16 19-16 53 0 72l90 107c13 16 36 18 52 5s18-36 5-52l-69-82 69-82c13-16 11-39-5-52s-39-11-52 5zM884 591c16 19 16 53 0 72l-90 107c-13 16-36 18-52 5s-18-36-5-52l69-82-69-82c-13-16-11-39 5-52s39-11 52 5zM642 393c5-20 25-32 45-27s32 25 27 45L612 861c-5 20-25 32-45 27s-32-25-27-45z"/></svg>